<?xml version="1.0" standalone="no"?><!DOCTYPE svg PUBLIC "-//W3C//DTD SVG 1.1//EN" "http://www.w3.org/Graphics/SVG/1.1/DTD/svg11.dtd"><svg t="1538381974348" class="icon" style="" viewBox="0 0 1024 1024" version="1.1" xmlns="http://www.w3.org/2000/svg" p-id="2676" xmlns:xlink="http://www.w3.org/1999/xlink" width="200" height="200"><defs><style type="text/css"></style></defs><path d="M798.6176 929.4848 212.48 929.4848C147.7632 929.4848 95.232 877.056 95.232 812.2368L95.232 226.0992C95.232 161.3824 149.7088 95.232 214.4256 95.232l327.7824 0 0 59.5968L214.4256 154.8288c-32.3584 0-59.5968 27.2384-59.5968 59.5968l-1.024 597.8112c0 32.3584 26.2144 58.5728 58.5728 58.5728l597.9136-0.9216c32.3584 0 59.5968-27.2384 59.5968-59.5968L869.888 482.6112l59.5968 0 0 327.7824C929.4848 875.008 863.3344 929.4848 798.6176 929.4848L798.6176 929.4848zM899.6864 363.4176c-16.896 0-29.7984-13.7216-29.7984-29.7984l-0.9216-142.336L415.6416 623.7184c-11.8784 11.3664-31.1296 11.3664-43.1104 0-11.8784-11.3664-11.8784-29.696 0-41.0624l449.536-428.7488-130.9696 0.9216c-16.896 0-29.7984-13.7216-29.7984-29.7984 0-16.0768 12.9024-29.7984 29.7984-29.7984l207.872 0c16.896 0 30.5152 12.9024 30.5152 28.9792l0 209.3056C929.4848 349.696 916.5824 363.3152 899.6864 363.4176L899.6864 363.4176z" p-id="2677" fill="#ffffff"></path></svg>