<?xml version="1.0" encoding="UTF-8"?>
<svg width="33px" height="33px" viewBox="0 0 33 33" version="1.1" xmlns="http://www.w3.org/2000/svg" xmlns:xlink="http://www.w3.org/1999/xlink">
    <!-- Generator: Sketch 46.2 (44496) - http://www.bohemiancoding.com/sketch -->
    <title>app_icon</title>
    <desc>Created with Sketch.</desc>
    <defs></defs>
    <g id="Symbols" stroke="none" stroke-width="1" fill="none" fill-rule="evenodd">
        <g id="Website/Banner/Home-Copy" transform="translate(-11.000000, -11.000000)">
            <g id="Group-2" transform="translate(11.000000, 11.000000)">
                <g id="app_icon">
                    <rect id="Rectangle" fill="#FFFFFF" x="0" y="0" width="33" height="33" rx="5"></rect>
                    <path d="M17.6431013,23.5961717 C17.6431013,23.2735344 17.8147377,22.9942358 18.1035603,22.8482902 L11.9857234,25.9397088 C12.2203272,25.8211606 12.4729015,25.8211074 12.7076105,25.9397088 L6.58977369,22.8482902 C6.87691825,22.9933879 7.05023264,23.272425 7.05023264,23.5976535 L7.05023264,15.62998 C7.05023264,15.9558482 6.87623181,16.235884 6.58735115,16.3809012 L12.705188,13.3097666 C12.4719027,13.4268751 12.2215356,13.4269275 11.988146,13.3097666 L18.1059828,16.3809012 C17.8158917,16.2352764 17.6431013,15.9553121 17.6431013,15.6310268 L17.6431013,17.2368998 L19.6933339,18.2607084 L19.6933339,15.6310268 C19.6933339,15.181389 19.4292005,14.7534258 19.0267386,14.5513913 L12.9089018,11.4802567 C12.5628432,11.3065364 12.1303105,11.3066269 11.7844321,11.4802567 L5.66659532,14.5513913 C5.26504573,14.7529679 5,15.1795306 5,15.62998 L5,23.5976535 C5,24.047713 5.26435599,24.4733275 5.66417277,24.6753599 L11.7820096,27.7667785 C12.1293876,27.9423128 12.5641276,27.9422213 12.9113243,27.7667785 L19.0291612,24.6753599 C19.4306527,24.4724813 19.6933339,24.0450282 19.6933339,23.5961717 L19.6933339,21.1046212 L17.6431013,20.0808126 L17.6431013,23.5961717 Z" id="Polygon" fill="#8169FA" fill-rule="nonzero"></path>
                    <path d="M16.0506586,9.2820555 C16.0506586,9.60454706 15.8786155,9.88488286 15.5876809,10.0309008 L21.7067887,6.95976621 C21.4734549,7.07687469 21.2230359,7.07692708 20.9895977,6.95976621 L27.1087055,10.0309008 C26.8200306,9.88601703 26.6457278,9.60602467 26.6457278,9.27997964 L26.6457278,17.2476532 C26.6457278,16.9226007 26.8188141,16.643521 27.1062824,16.4982898 L20.9871746,19.5897084 C21.2218272,19.4711602 21.4744539,19.471107 21.7092117,19.5897084 L15.590104,16.4982898 C15.8788995,16.6441915 16.0506586,16.9232142 16.0506586,17.2464774 L16.0506586,15.6362338 L14,14.6124252 L14,17.2464774 C14,17.6952352 14.2631211,18.1226755 14.6643107,18.3253595 L20.7834185,21.4167781 C21.1308687,21.5923125 21.5656989,21.5922209 21.9129679,21.4167781 L28.0320756,18.3253595 C28.4322363,18.1231954 28.6963864,17.6972867 28.6963864,17.2476532 L28.6963864,9.27997964 C28.6963864,8.82910369 28.431023,8.40283572 28.0296526,8.20139087 L21.9105448,5.1302563 C21.5644143,4.95653598 21.1317917,4.95662649 20.7858416,5.1302563 L14.6667338,8.20139087 C14.2631068,8.40396823 14,8.83268813 14,9.2820555 L14,11.7685124 L16.0506586,12.792321 L16.0506586,9.2820555 Z" id="Polygon" fill="#8169FA" fill-rule="nonzero"></path>
                </g>
            </g>
        </g>
    </g>
</svg>